<?xml version="1.0" encoding="utf-8"?>
<svg version="1.1" id="Layer_1" x="0px" y="0px" viewBox="0 0 512 512" style="enable-background:new 0 0 512 512;" xmlns="http://www.w3.org/2000/svg">
  <g>
    <path style="fill:#57565C;" d="M439.652,512H372.87c-9.223,0-16.696-7.473-16.696-16.696v-66.783 c0-9.223,7.473-16.696,16.696-16.696h66.783c9.223,0,16.696,7.473,16.696,16.696v66.783C456.348,504.527,448.875,512,439.652,512z"/>
    <path style="fill:#57565C;" d="M139.13,512H72.348c-9.223,0-16.696-7.473-16.696-16.696v-66.783 c0-9.223,7.473-16.696,16.696-16.696h66.783c9.223,0,16.696,7.473,16.696,16.696v66.783C155.826,504.527,148.353,512,139.13,512z"/>
  </g>
  <g>
    <path style="fill:#3E3D42;" d="M139.13,411.826h-33.391V512h33.391c9.223,0,16.696-7.473,16.696-16.696v-66.783 C155.826,419.299,148.353,411.826,139.13,411.826z"/>
    <path style="fill:#3E3D42;" d="M439.652,411.826h-33.391V512h33.391c9.223,0,16.696-7.473,16.696-16.696v-66.783 C456.348,419.299,448.875,411.826,439.652,411.826z"/>
  </g>
  <path style="fill: rgb(229, 160, 0);" d="M456.348,328.348h-33.391H89.043H55.652V116.87C55.652,52.429,108.081,0,172.522,0h166.957 c64.441,0,116.87,52.429,116.87,116.87V328.348z"/>
  <path style="fill: rgb(180, 126, 0);" d="M339.478,0H256v328.348h166.957h33.391V116.87C456.348,52.429,403.919,0,339.478,0z"/>
  <g>
    <circle style="fill: rgb(112, 78, 0);" cx="205.913" cy="116.87" r="16.696"/>
    <circle style="fill: rgb(112, 78, 0);" cx="205.913" cy="228.174" r="16.696"/>
    <circle style="fill: rgb(112, 78, 0);" cx="306.087" cy="116.87" r="16.696"/>
  </g>
  <path style="fill: rgb(255, 179, 0);" d="M 477.757 445.217 L 32.539 445.217 C 14.126 445.217 -0.852 430.239 -0.852 411.826 L -0.852 244.87 C -0.852 208.044 29.104 178.087 65.931 178.087 C 102.758 178.087 132.714 208.043 132.714 244.87 L 132.714 311.653 L 377.584 311.653 L 377.584 244.87 C 377.584 208.044 407.54 178.087 444.367 178.087 C 481.194 178.087 511.148 208.043 511.148 244.87 L 511.148 411.827 C 511.148 430.239 496.17 445.217 477.757 445.217 Z"/>
  <path style="fill: rgb(229, 160, 0);" d="M445.217,178.087c-36.826,0-66.783,29.956-66.783,66.783v66.783H256v133.565h222.609 c18.413,0,33.391-14.978,33.391-33.391V244.87C512,208.043,482.044,178.087,445.217,178.087z"/>
  <circle style="fill: rgb(112, 78, 0);" cx="306.087" cy="228.174" r="16.696"/>
  <g/>
  <g/>
  <g/>
  <g/>
  <g/>
  <g/>
  <g/>
  <g/>
  <g/>
  <g/>
  <g/>
  <g/>
  <g/>
  <g/>
  <g/>
</svg>