<?xml version="1.0" encoding="iso-8859-1"?>
<!-- Generator: Adobe Illustrator 19.0.0, SVG Export Plug-In . SVG Version: 6.00 Build 0)  -->
<svg version="1.1" id="Layer_1" xmlns="http://www.w3.org/2000/svg" xmlns:xlink="http://www.w3.org/1999/xlink" x="0px" y="0px"
	 viewBox="0 0 512 512" style="enable-background:new 0 0 512 512;" xml:space="preserve">
<g>
	<path style="fill:#57565C;" d="M439.652,512H372.87c-9.223,0-16.696-7.473-16.696-16.696v-66.783
		c0-9.223,7.473-16.696,16.696-16.696h66.783c9.223,0,16.696,7.473,16.696,16.696v66.783C456.348,504.527,448.875,512,439.652,512z"
		/>
	<path style="fill:#57565C;" d="M139.13,512H72.348c-9.223,0-16.696-7.473-16.696-16.696v-66.783
		c0-9.223,7.473-16.696,16.696-16.696h66.783c9.223,0,16.696,7.473,16.696,16.696v66.783C155.826,504.527,148.353,512,139.13,512z"
		/>
</g>
<g>
	<path style="fill:#3E3D42;" d="M139.13,411.826h-33.391V512h33.391c9.223,0,16.696-7.473,16.696-16.696v-66.783
		C155.826,419.299,148.353,411.826,139.13,411.826z"/>
	<path style="fill:#3E3D42;" d="M439.652,411.826h-33.391V512h33.391c9.223,0,16.696-7.473,16.696-16.696v-66.783
		C456.348,419.299,448.875,411.826,439.652,411.826z"/>
</g>
<path style="fill:#D80027;" d="M456.348,328.348h-33.391H89.043H55.652V116.87C55.652,52.429,108.081,0,172.522,0h166.957
	c64.441,0,116.87,52.429,116.87,116.87V328.348z"/>
<path style="fill:#A5001E;" d="M339.478,0H256v328.348h166.957h33.391V116.87C456.348,52.429,403.919,0,339.478,0z"/>
<g>
	<circle style="fill:#830018;" cx="205.913" cy="116.87" r="16.696"/>
	<circle style="fill:#830018;" cx="205.913" cy="228.174" r="16.696"/>
	<circle style="fill:#830018;" cx="306.087" cy="116.87" r="16.696"/>
</g>
<path style="fill:#FF0C38;" d="M478.609,445.217H33.391C14.978,445.217,0,430.239,0,411.826V244.87
	c0-36.826,29.956-66.783,66.783-66.783s66.783,29.956,66.783,66.783v66.783h244.87V244.87c0-36.826,29.956-66.783,66.783-66.783
	S512,208.043,512,244.87v166.957C512,430.239,497.022,445.217,478.609,445.217z"/>
<path style="fill:#D80027;" d="M445.217,178.087c-36.826,0-66.783,29.956-66.783,66.783v66.783H256v133.565h222.609
	c18.413,0,33.391-14.978,33.391-33.391V244.87C512,208.043,482.044,178.087,445.217,178.087z"/>
<circle style="fill:#830018;" cx="306.087" cy="228.174" r="16.696"/>
<g>
</g>
<g>
</g>
<g>
</g>
<g>
</g>
<g>
</g>
<g>
</g>
<g>
</g>
<g>
</g>
<g>
</g>
<g>
</g>
<g>
</g>
<g>
</g>
<g>
</g>
<g>
</g>
<g>
</g>
</svg>
